<svg xmlns="http://www.w3.org/2000/svg" version="1.1" xmlns:xlink="http://www.w3.org/1999/xlink" width="1000" height="1000"><style>
    #light-icon {
      display: inline;
    }
    #dark-icon {
      display: none;
    }

    @media (prefers-color-scheme: dark) {
      #light-icon {
        display: none;
      }
      #dark-icon {
        display: inline;
      }
    }
  </style><g id="light-icon"><svg xmlns="http://www.w3.org/2000/svg" version="1.1" xmlns:xlink="http://www.w3.org/1999/xlink" width="1000" height="1000"><g clip-path="url(#SvgjsClipPath1143)"><rect width="1000" height="1000" fill="#ffffff"></rect><g transform="matrix(13.333333333333334,0,0,13.333333333333334,100,100)"><svg xmlns="http://www.w3.org/2000/svg" version="1.1" xmlns:xlink="http://www.w3.org/1999/xlink" width="60" height="60"><svg id="icon-leather" viewBox="0 0 60 60" xmlns="http://www.w3.org/2000/svg" xmlns:xlink="http://www.w3.org/1999/xlink" width="60" height="60">
    <path d="M54.309 19.463a2.985 2.985 0 0 0 1.619-3.348l-1.239-5.577a3.02 3.02 0 0 0-3.182-2.332C43.128 8.857 39.75 3.87 38.69 1.7a2.986 2.986 0 0 0-2.7-1.7H24a2.989 2.989 0 0 0-2.7 1.7c-1.06 2.174-4.427 7.159-12.817 6.51A3.03 3.03 0 0 0 5.3 10.539l-1.238 5.576a2.984 2.984 0 0 0 1.619 3.348c2.236 1.079 5.986 3.884 5.986 10.537s-3.75 9.458-5.986 10.537a2.984 2.984 0 0 0-1.619 3.348L5.3 49.461a3.023 3.023 0 0 0 3.181 2.333c8.379-.656 11.757 4.335 12.817 6.51A2.989 2.989 0 0 0 24 60h11.99a2.986 2.986 0 0 0 2.7-1.7c1.061-2.174 4.441-7.163 12.817-6.51a3.021 3.021 0 0 0 3.182-2.333l1.239-5.576a2.985 2.985 0 0 0-1.619-3.348c-2.236-1.075-5.986-3.88-5.986-10.533s3.75-9.458 5.986-10.537zM46.323 30c0 7.745 4.458 11.055 7.115 12.338a.992.992 0 0 1 .538 1.113l-1.239 5.576a1 1 0 0 1-1.074.773c-9.611-.748-13.531 5.085-14.77 7.628a1 1 0 0 1-.9.572H24a1 1 0 0 1-.9-.573c-1.166-2.39-4.7-7.692-13.118-7.692q-.8 0-1.652.065a1 1 0 0 1-1.074-.772l-1.242-5.577a.992.992 0 0 1 .537-1.113c2.657-1.283 7.116-4.592 7.116-12.338S9.208 18.945 6.551 17.662a.992.992 0 0 1-.537-1.113l1.239-5.577a1 1 0 0 1 1.074-.772c9.61.747 13.531-5.085 14.77-7.628A1 1 0 0 1 24 2h11.99a1 1 0 0 1 .9.572c1.239 2.541 5.157 8.371 14.77 7.627a1 1 0 0 1 1.074.772l1.239 5.577a.992.992 0 0 1-.538 1.113c-2.654 1.284-7.112 4.594-7.112 12.339z">
    </path>
    <path d=" M25.7 4.139a1 1 0 0 0-1.37.353 16 16 0 0 1-1.125 1.662 1 1 0 0 0 1.584 1.222 18.33 18.33 0 0 0 1.264-1.868
        1 1 0 0 0-.353-1.369zM20.39 8.977a15.026 15.026 0 0 1-1.736 1.154 1 1 0 0 0 .99 1.738 17.108 17.108 0 0 0
        1.966-1.307 1 1 0 0 0-1.22-1.585zM13.171 14.042a19.817 19.817 0 0 0 2.077-.411 1 1 0 0 0-.5-1.938 17.884 17.884
        0 0 1-1.865.37 1 1 0 0 0 .284 1.979zM9.8 14.893a1 1 0 1 0-1.059 1.7 14.622 14.622 0 0 1 1.63 1.18 1 1 0 1 0
        1.28-1.538A16.733 16.733 0 0 0 9.8 14.893zM14.943 23a.985.985 0 0 0 .439-.1 1 1 0 0 0 .458-1.337 16.1 16.1 0 0
        0-1.254-2.132 1 1 0 0 0-1.641 1.144 14.1 14.1 0 0 1 1.1 1.867 1 1 0 0 0 .898.558zM16.087 25.02a1 1 0 0 0-.787
        1.18 18.2 18.2 0 0 1 .277 1.895 1 1 0 0 0 .994.908h.093a1 1 0 0 0 .9-1.088 20.276 20.276 0 0 0-.307-2.105 1 1 0
        0 0-1.17-.79zM16.668 31a1 1 0 0 0-1.087.9 18.2 18.2 0 0 1-.281 1.9 1 1 0 0 0 .783 1.177.967.967 0 0 0 .2.02 1 1
        0 0 0 .979-.8 20.276 20.276 0 0 0 .307-2.105A1 1 0 0 0 16.668 31zM15.433 36.979a1 1 0 0 0-1.334.47 14.228 14.228
        0 0 1-.935 1.656 1 1 0 0 0 1.672 1.1 16.369 16.369 0 0 0 1.066-1.89 1 1 0 0 0-.469-1.336zM10.367 42.231a14.622
        14.622 0 0 1-1.63 1.18 1 1 0 1 0 1.059 1.7 16.733 16.733 0 0 0 1.851-1.338 1 1 0 0 0-1.28-1.538zM15.248
        46.369a19.76 19.76 0 0 0-2.074-.411 1 1 0 0 0-.285 1.98 17.39 17.39 0 0 1 1.863.369 1 1 0 1 0 .5-1.938zM19.485
        48.042a1 1 0 1 0-.97 1.748 15.12 15.12 0 0 1 1.585 1.017 1 1 0 1 0 1.182-1.614 16.957 16.957 0 0
        0-1.797-1.151zM24.6 52.375a1 1 0 1 0-1.561 1.25 16.187 16.187 0 0 1 1.3 1.883A1 1 0 0 0 25.2 56a.989.989 0 0 0
        .507-.139 1 1 0 0 0 .353-1.369 18.137 18.137 0 0 0-1.46-2.117zM31 54h-2a1 1 0 0 0 0 2h2a1 1 0 0 0 0-2zM31 4h-2a1
        1 0 0 0 0 2h2a1 1 0 0 0 0-2zM35.208 7.376a1 1 0 0 0 1.584-1.222 16 16 0 0 1-1.125-1.662 1 1 0 0 0-1.723 1.016
        18.33 18.33 0 0 0 1.264 1.868zM40.356 11.869a1 1 0 1 0 .99-1.738 15.026 15.026 0 0 1-1.736-1.154 1 1 0 0 0-1.22
        1.585 17.108 17.108 0 0 0 1.966 1.307zM47.113 12.063a17.884 17.884 0 0 1-1.865-.37 1 1 0 0 0-.5 1.938 19.817
        19.817 0 0 0 2.077.411 1 1 0 1 0 .284-1.979zM50.2 14.893a16.733 16.733 0 0 0-1.851 1.338 1 1 0 0 0 1.28 1.538
        14.622 14.622 0 0 1 1.63-1.18 1 1 0 1 0-1.059-1.7zM45.414 19.428a16.1 16.1 0 0 0-1.254 2.132 1 1 0 0 0 .458
        1.337.985.985 0 0 0 .439.1 1 1 0 0 0 .9-.561 14.1 14.1 0 0 1 1.1-1.867 1 1 0 0 0-1.641-1.144zM43.332 29h.093a1 1
        0 0 0 .994-.908A18.2 18.2 0 0 1 44.7 26.2a1 1 0 0 0-1.961-.394 20.276 20.276 0 0 0-.307 2.105 1 1 0 0 0 .9
        1.089zM44.7 33.8a18.2 18.2 0 0 1-.277-1.895 1 1 0 1 0-1.991.184 20.276 20.276 0 0 0 .307 2.105 1 1 0 0 0
        .979.8.967.967 0 0 0 .2-.02A1 1 0 0 0 44.7 33.8zM44.567 36.979a1 1 0 0 0-.469 1.334 16.369 16.369 0 0 0 1.066
        1.89 1 1 0 0 0 1.672-1.1 14.228 14.228 0 0 1-.935-1.656 1 1 0 0 0-1.334-.468zM50.2 45.107a1 1 0 1 0 1.059-1.7
        14.622 14.622 0 0 1-1.63-1.18 1 1 0 1 0-1.28 1.538 16.733 16.733 0 0 0 1.851 1.342zM44.752 46.369a1 1 0 0 0 .5
        1.938 17.39 17.39 0 0 1 1.863-.369 1 1 0 0 0-.285-1.98 19.76 19.76 0 0 0-2.078.411zM40.515 48.042a16.957 16.957
        0 0 0-1.8 1.151 1 1 0 0 0 1.185 1.614 15.12 15.12 0 0 1 1.587-1.017 1 1 0 1 0-.97-1.748zM35.4 52.375a18.137
        18.137 0 0 0-1.46 2.117 1 1 0 0 0 .353 1.369.989.989 0 0 0 .507.139 1 1 0 0 0 .863-.492 16.187 16.187 0 0 1
        1.3-1.883 1 1 0 1 0-1.561-1.25z"></path>
</svg></svg></g></g><defs><clipPath id="SvgjsClipPath1143"><rect width="1000" height="1000" x="0" y="0" rx="500" ry="500"></rect></clipPath></defs></svg></g><g id="dark-icon"><svg xmlns="http://www.w3.org/2000/svg" version="1.1" xmlns:xlink="http://www.w3.org/1999/xlink" width="1000" height="1000"><g><g transform="matrix(16.666666666666668,0,0,16.666666666666668,-5.684341886080802e-14,-5.684341886080802e-14)" style="filter: invert(100%)"><svg xmlns="http://www.w3.org/2000/svg" version="1.1" xmlns:xlink="http://www.w3.org/1999/xlink" width="60" height="60"><svg id="icon-leather" viewBox="0 0 60 60" xmlns="http://www.w3.org/2000/svg" xmlns:xlink="http://www.w3.org/1999/xlink" width="60" height="60">
    <path d="M54.309 19.463a2.985 2.985 0 0 0 1.619-3.348l-1.239-5.577a3.02 3.02 0 0 0-3.182-2.332C43.128 8.857 39.75 3.87 38.69 1.7a2.986 2.986 0 0 0-2.7-1.7H24a2.989 2.989 0 0 0-2.7 1.7c-1.06 2.174-4.427 7.159-12.817 6.51A3.03 3.03 0 0 0 5.3 10.539l-1.238 5.576a2.984 2.984 0 0 0 1.619 3.348c2.236 1.079 5.986 3.884 5.986 10.537s-3.75 9.458-5.986 10.537a2.984 2.984 0 0 0-1.619 3.348L5.3 49.461a3.023 3.023 0 0 0 3.181 2.333c8.379-.656 11.757 4.335 12.817 6.51A2.989 2.989 0 0 0 24 60h11.99a2.986 2.986 0 0 0 2.7-1.7c1.061-2.174 4.441-7.163 12.817-6.51a3.021 3.021 0 0 0 3.182-2.333l1.239-5.576a2.985 2.985 0 0 0-1.619-3.348c-2.236-1.075-5.986-3.88-5.986-10.533s3.75-9.458 5.986-10.537zM46.323 30c0 7.745 4.458 11.055 7.115 12.338a.992.992 0 0 1 .538 1.113l-1.239 5.576a1 1 0 0 1-1.074.773c-9.611-.748-13.531 5.085-14.77 7.628a1 1 0 0 1-.9.572H24a1 1 0 0 1-.9-.573c-1.166-2.39-4.7-7.692-13.118-7.692q-.8 0-1.652.065a1 1 0 0 1-1.074-.772l-1.242-5.577a.992.992 0 0 1 .537-1.113c2.657-1.283 7.116-4.592 7.116-12.338S9.208 18.945 6.551 17.662a.992.992 0 0 1-.537-1.113l1.239-5.577a1 1 0 0 1 1.074-.772c9.61.747 13.531-5.085 14.77-7.628A1 1 0 0 1 24 2h11.99a1 1 0 0 1 .9.572c1.239 2.541 5.157 8.371 14.77 7.627a1 1 0 0 1 1.074.772l1.239 5.577a.992.992 0 0 1-.538 1.113c-2.654 1.284-7.112 4.594-7.112 12.339z">
    </path>
    <path d=" M25.7 4.139a1 1 0 0 0-1.37.353 16 16 0 0 1-1.125 1.662 1 1 0 0 0 1.584 1.222 18.33 18.33 0 0 0 1.264-1.868
        1 1 0 0 0-.353-1.369zM20.39 8.977a15.026 15.026 0 0 1-1.736 1.154 1 1 0 0 0 .99 1.738 17.108 17.108 0 0 0
        1.966-1.307 1 1 0 0 0-1.22-1.585zM13.171 14.042a19.817 19.817 0 0 0 2.077-.411 1 1 0 0 0-.5-1.938 17.884 17.884
        0 0 1-1.865.37 1 1 0 0 0 .284 1.979zM9.8 14.893a1 1 0 1 0-1.059 1.7 14.622 14.622 0 0 1 1.63 1.18 1 1 0 1 0
        1.28-1.538A16.733 16.733 0 0 0 9.8 14.893zM14.943 23a.985.985 0 0 0 .439-.1 1 1 0 0 0 .458-1.337 16.1 16.1 0 0
        0-1.254-2.132 1 1 0 0 0-1.641 1.144 14.1 14.1 0 0 1 1.1 1.867 1 1 0 0 0 .898.558zM16.087 25.02a1 1 0 0 0-.787
        1.18 18.2 18.2 0 0 1 .277 1.895 1 1 0 0 0 .994.908h.093a1 1 0 0 0 .9-1.088 20.276 20.276 0 0 0-.307-2.105 1 1 0
        0 0-1.17-.79zM16.668 31a1 1 0 0 0-1.087.9 18.2 18.2 0 0 1-.281 1.9 1 1 0 0 0 .783 1.177.967.967 0 0 0 .2.02 1 1
        0 0 0 .979-.8 20.276 20.276 0 0 0 .307-2.105A1 1 0 0 0 16.668 31zM15.433 36.979a1 1 0 0 0-1.334.47 14.228 14.228
        0 0 1-.935 1.656 1 1 0 0 0 1.672 1.1 16.369 16.369 0 0 0 1.066-1.89 1 1 0 0 0-.469-1.336zM10.367 42.231a14.622
        14.622 0 0 1-1.63 1.18 1 1 0 1 0 1.059 1.7 16.733 16.733 0 0 0 1.851-1.338 1 1 0 0 0-1.28-1.538zM15.248
        46.369a19.76 19.76 0 0 0-2.074-.411 1 1 0 0 0-.285 1.98 17.39 17.39 0 0 1 1.863.369 1 1 0 1 0 .5-1.938zM19.485
        48.042a1 1 0 1 0-.97 1.748 15.12 15.12 0 0 1 1.585 1.017 1 1 0 1 0 1.182-1.614 16.957 16.957 0 0
        0-1.797-1.151zM24.6 52.375a1 1 0 1 0-1.561 1.25 16.187 16.187 0 0 1 1.3 1.883A1 1 0 0 0 25.2 56a.989.989 0 0 0
        .507-.139 1 1 0 0 0 .353-1.369 18.137 18.137 0 0 0-1.46-2.117zM31 54h-2a1 1 0 0 0 0 2h2a1 1 0 0 0 0-2zM31 4h-2a1
        1 0 0 0 0 2h2a1 1 0 0 0 0-2zM35.208 7.376a1 1 0 0 0 1.584-1.222 16 16 0 0 1-1.125-1.662 1 1 0 0 0-1.723 1.016
        18.33 18.33 0 0 0 1.264 1.868zM40.356 11.869a1 1 0 1 0 .99-1.738 15.026 15.026 0 0 1-1.736-1.154 1 1 0 0 0-1.22
        1.585 17.108 17.108 0 0 0 1.966 1.307zM47.113 12.063a17.884 17.884 0 0 1-1.865-.37 1 1 0 0 0-.5 1.938 19.817
        19.817 0 0 0 2.077.411 1 1 0 1 0 .284-1.979zM50.2 14.893a16.733 16.733 0 0 0-1.851 1.338 1 1 0 0 0 1.28 1.538
        14.622 14.622 0 0 1 1.63-1.18 1 1 0 1 0-1.059-1.7zM45.414 19.428a16.1 16.1 0 0 0-1.254 2.132 1 1 0 0 0 .458
        1.337.985.985 0 0 0 .439.1 1 1 0 0 0 .9-.561 14.1 14.1 0 0 1 1.1-1.867 1 1 0 0 0-1.641-1.144zM43.332 29h.093a1 1
        0 0 0 .994-.908A18.2 18.2 0 0 1 44.7 26.2a1 1 0 0 0-1.961-.394 20.276 20.276 0 0 0-.307 2.105 1 1 0 0 0 .9
        1.089zM44.7 33.8a18.2 18.2 0 0 1-.277-1.895 1 1 0 1 0-1.991.184 20.276 20.276 0 0 0 .307 2.105 1 1 0 0 0
        .979.8.967.967 0 0 0 .2-.02A1 1 0 0 0 44.7 33.8zM44.567 36.979a1 1 0 0 0-.469 1.334 16.369 16.369 0 0 0 1.066
        1.89 1 1 0 0 0 1.672-1.1 14.228 14.228 0 0 1-.935-1.656 1 1 0 0 0-1.334-.468zM50.2 45.107a1 1 0 1 0 1.059-1.7
        14.622 14.622 0 0 1-1.63-1.18 1 1 0 1 0-1.28 1.538 16.733 16.733 0 0 0 1.851 1.342zM44.752 46.369a1 1 0 0 0 .5
        1.938 17.39 17.39 0 0 1 1.863-.369 1 1 0 0 0-.285-1.98 19.76 19.76 0 0 0-2.078.411zM40.515 48.042a16.957 16.957
        0 0 0-1.8 1.151 1 1 0 0 0 1.185 1.614 15.12 15.12 0 0 1 1.587-1.017 1 1 0 1 0-.97-1.748zM35.4 52.375a18.137
        18.137 0 0 0-1.46 2.117 1 1 0 0 0 .353 1.369.989.989 0 0 0 .507.139 1 1 0 0 0 .863-.492 16.187 16.187 0 0 1
        1.3-1.883 1 1 0 1 0-1.561-1.25z"></path>
</svg></svg></g></g></svg></g></svg>